<svg width="1144" height="698" viewBox="0 0 1144 698" fill="none" xmlns="http://www.w3.org/2000/svg">
<g clip-path="url(#clip0)">
<path opacity="0.1" d="M1144 415.31C1144.06 448.406 1135.03 480.882 1117.88 509.19C1117.88 543.81 1101.74 575.19 1075.56 598.06C1069.01 603.776 1061.95 608.89 1054.48 613.34C1054.18 613.53 1053.87 613.71 1053.56 613.89C1053 614.22 1052.44 614.55 1051.87 614.89L1051.34 615.2C1026.55 629.007 998.614 636.172 970.24 636H217.17C211.17 636 205.223 635.76 199.33 635.28C178.387 633.63 157.807 628.865 138.27 621.14C134.457 619.633 130.717 618.013 127.05 616.28C125.303 615.46 123.573 614.617 121.86 613.75C120.79 613.21 119.72 612.65 118.66 612.09C106.34 605.598 94.782 597.753 84.2 588.7C50.2 559.47 29.12 519.09 29.12 474.49C10.0474 445.121 -0.0702412 410.838 -2.97997e-06 375.82C-2.97997e-06 276.68 79.24 196.31 177 196.31C180 196.31 183 196.4 186 196.56C186.43 196.56 186.85 196.56 187.28 196.62C203.76 168.53 225.79 142.72 252.28 120C324.52 58.1 430.1 19.08 547.71 19.08C646.53 19.08 736.86 46.63 806.05 92.15C832.269 77.3289 861.882 69.5594 892 69.6C989.74 69.6 1069 149.97 1069 249.11C1068.99 255.383 1068.65 261.651 1068 267.89C1091.56 284.568 1110.76 306.668 1123.99 332.325C1137.22 357.982 1144.08 386.444 1144 415.31V415.31Z" fill="#3F51B5"/>
<g opacity="0.2">
<path opacity="0.2" d="M138.37 619.79C138.37 620.25 138.32 620.7 138.27 621.14C134.457 619.633 130.717 618.013 127.05 616.28C125.091 616.022 123.27 615.134 121.86 613.75C120.79 613.21 119.72 612.65 118.66 612.09C118.9 611.587 119.171 611.1 119.47 610.63C121.53 607.37 124.66 605.33 128.11 605.44C131.56 605.55 134.55 607.78 136.4 611.15C137.815 613.803 138.495 616.786 138.37 619.79V619.79Z" fill="#3F3D56"/>
<path opacity="0.2" d="M138.91 602.67C138.842 605.67 137.975 608.597 136.4 611.15C134.34 614.4 131.21 616.44 127.76 616.33L127.05 616.28C125.091 616.022 123.269 615.134 121.86 613.75C120.904 612.842 120.098 611.789 119.47 610.63C118.09 607.968 117.415 604.997 117.51 602C117.604 599.003 118.465 596.08 120.01 593.51C122.07 590.25 125.2 588.21 128.65 588.32C132.1 588.43 135.09 590.66 136.94 594.03C138.355 596.683 139.035 599.666 138.91 602.67Z" fill="#3F3D56"/>
<path opacity="0.2" d="M139.453 585.58C139.698 577.847 135.108 571.426 129.201 571.239C123.295 571.053 118.308 577.171 118.064 584.904C117.82 592.638 122.41 599.059 128.316 599.245C134.223 599.432 139.209 593.314 139.453 585.58Z" fill="#3F3D56"/>
<path opacity="0.2" d="M139.989 568.46C140.233 560.726 135.643 554.305 129.737 554.119C123.83 553.932 118.844 560.05 118.6 567.784C118.355 575.518 122.945 581.938 128.852 582.125C134.758 582.311 139.744 576.193 139.989 568.46Z" fill="#3F3D56"/>
<path opacity="0.2" d="M140.615 550.21C140.847 542.473 136.245 536.056 130.335 535.879C124.426 535.702 119.447 541.831 119.215 549.568C118.983 557.306 123.585 563.722 129.495 563.899C135.404 564.076 140.383 557.948 140.615 550.21Z" fill="#3F3D56"/>
<path opacity="0.2" d="M93.47 432.55C92.0618 430.643 90.7919 428.638 89.67 426.55L117.93 422.82L87.51 422.09C84.7954 415.651 83.4227 408.726 83.476 401.738C83.5293 394.75 85.0074 387.847 87.82 381.45L127.94 403.9L91.19 375.05C94.8973 369.054 99.8012 363.887 105.595 359.871C111.389 355.855 117.949 353.077 124.865 351.71C131.781 350.343 138.905 350.417 145.791 351.927C152.677 353.438 159.177 356.351 164.887 360.486C170.596 364.622 175.392 369.89 178.974 375.962C182.556 382.034 184.847 388.779 185.705 395.776C186.563 402.773 185.969 409.872 183.961 416.63C181.952 423.387 178.571 429.658 174.03 435.05C176.218 438.017 178.079 441.213 179.58 444.58L142.49 462.39L181.82 450.56C184.297 458.733 184.696 467.394 182.981 475.759C181.267 484.125 177.492 491.931 172 498.47C177.71 506.217 181.125 515.415 181.853 525.012C182.582 534.609 180.596 544.217 176.121 552.737C171.646 561.258 164.864 568.347 156.549 573.195C148.235 578.043 138.724 580.452 129.105 580.149C119.485 579.846 110.145 576.842 102.153 571.48C94.1603 566.118 87.838 558.616 83.9088 549.83C79.9797 541.044 78.6022 531.33 79.9341 521.798C81.2659 512.267 85.2532 503.302 91.44 495.93C84.6181 486.671 81.1064 475.388 81.4691 463.894C81.8318 452.399 86.0479 441.36 93.44 432.55H93.47Z" fill="#3F51B5"/>
<path opacity="0.1" d="M184 467.13C183.645 478.63 179.417 489.674 172 498.47C177.71 506.217 181.125 515.415 181.853 525.012C182.582 534.609 180.596 544.217 176.121 552.737C171.646 561.258 164.864 568.347 156.549 573.195C148.235 578.043 138.724 580.452 129.105 580.149C119.485 579.846 110.145 576.842 102.153 571.48C94.1603 566.118 87.838 558.616 83.9088 549.83C79.9797 541.044 78.6022 531.33 79.9341 521.798C81.2659 512.267 85.2532 503.302 91.44 495.93C84.87 487 184.18 461.37 184 467.13Z" fill="black"/>
</g>
<path d="M958 138.41V617.59C958 622.473 956.06 627.155 952.608 630.608C949.155 634.06 944.473 636 939.59 636H204.41C202.691 636.002 200.981 635.76 199.33 635.28C195.487 634.182 192.106 631.861 189.701 628.669C187.296 625.476 185.996 621.587 186 617.59V403.75C186 402.66 186 401.58 186 400.5V196.56C186.43 196.56 186.85 196.56 187.28 196.62C203.76 168.53 225.79 142.72 252.28 120H939.59C944.473 120 949.155 121.94 952.608 125.392C956.06 128.845 958 133.527 958 138.41Z" fill="#262626"/>
<path d="M832.02 182.23H730.15C720.22 182.23 712.17 190.28 712.17 200.21C712.17 210.14 720.22 218.19 730.15 218.19H832.02C841.95 218.19 850 210.14 850 200.21C850 190.28 841.95 182.23 832.02 182.23Z" fill="#3F3D56"/>
<path opacity="0.1" d="M829.04 188.24H733.12C726.509 188.24 721.15 193.597 721.15 200.205C721.15 206.813 726.509 212.17 733.12 212.17H829.04C835.651 212.17 841.01 206.813 841.01 200.205C841.01 193.597 835.651 188.24 829.04 188.24Z" fill="black"/>
<path d="M827.36 189.55H805.38C799.498 189.55 794.73 194.318 794.73 200.2V200.21C794.73 206.092 799.498 210.86 805.38 210.86H827.36C833.242 210.86 838.01 206.092 838.01 200.21V200.2C838.01 194.318 833.242 189.55 827.36 189.55Z" fill="#3F51B5"/>
<path d="M816.04 206.87C819.718 206.87 822.7 203.888 822.7 200.21C822.7 196.532 819.718 193.55 816.04 193.55C812.362 193.55 809.38 196.532 809.38 200.21C809.38 203.888 812.362 206.87 816.04 206.87Z" fill="#262626"/>
<path d="M832.02 419.28H730.15C720.22 419.28 712.17 427.33 712.17 437.26C712.17 447.19 720.22 455.24 730.15 455.24H832.02C841.95 455.24 850 447.19 850 437.26C850 427.33 841.95 419.28 832.02 419.28Z" fill="#3F3D56"/>
<path opacity="0.1" d="M829.04 425.29H733.12C726.509 425.29 721.15 430.647 721.15 437.255C721.15 443.863 726.509 449.22 733.12 449.22H829.04C835.651 449.22 841.01 443.863 841.01 437.255C841.01 430.647 835.651 425.29 829.04 425.29Z" fill="black"/>
<path d="M827.36 426.6H805.38C799.498 426.6 794.73 431.368 794.73 437.25V437.26C794.73 443.142 799.498 447.91 805.38 447.91H827.36C833.242 447.91 838.01 443.142 838.01 437.26V437.25C838.01 431.368 833.242 426.6 827.36 426.6Z" fill="#3F51B5"/>
<path d="M816.04 443.92C819.718 443.92 822.7 440.938 822.7 437.26C822.7 433.582 819.718 430.6 816.04 430.6C812.362 430.6 809.38 433.582 809.38 437.26C809.38 440.938 812.362 443.92 816.04 443.92Z" fill="#262626"/>
<path d="M832.02 537.8H730.15C720.22 537.8 712.17 545.85 712.17 555.78C712.17 565.71 720.22 573.76 730.15 573.76H832.02C841.95 573.76 850 565.71 850 555.78C850 545.85 841.95 537.8 832.02 537.8Z" fill="#3F3D56"/>
<path opacity="0.1" d="M829.04 543.82H733.12C726.509 543.82 721.15 549.177 721.15 555.785C721.15 562.393 726.509 567.75 733.12 567.75H829.04C835.651 567.75 841.01 562.393 841.01 555.785C841.01 549.177 835.651 543.82 829.04 543.82Z" fill="black"/>
<path d="M827.36 545.13H805.38C799.498 545.13 794.73 549.898 794.73 555.78V555.79C794.73 561.672 799.498 566.44 805.38 566.44H827.36C833.242 566.44 838.01 561.672 838.01 555.79V555.78C838.01 549.898 833.242 545.13 827.36 545.13Z" fill="#3F51B5"/>
<path d="M816.04 562.44C819.718 562.44 822.7 559.458 822.7 555.78C822.7 552.102 819.718 549.12 816.04 549.12C812.362 549.12 809.38 552.102 809.38 555.78C809.38 559.458 812.362 562.44 816.04 562.44Z" fill="#262626"/>
<path d="M363.92 159.59H304.65C298.768 159.59 294 164.358 294 170.24V170.25C294 176.132 298.768 180.9 304.65 180.9H363.92C369.802 180.9 374.57 176.132 374.57 170.25V170.24C374.57 164.358 369.802 159.59 363.92 159.59Z" fill="#3F51B5"/>
<path d="M507.08 189.55H304.65C298.768 189.55 294 194.318 294 200.2V200.21C294 206.092 298.768 210.86 304.65 210.86H507.08C512.962 210.86 517.73 206.092 517.73 200.21V200.2C517.73 194.318 512.962 189.55 507.08 189.55Z" fill="#3F51B5"/>
<path d="M507.08 219.52H304.65C298.768 219.52 294 224.288 294 230.17V230.18C294 236.062 298.768 240.83 304.65 240.83H507.08C512.962 240.83 517.73 236.062 517.73 230.18V230.17C517.73 224.288 512.962 219.52 507.08 219.52Z" fill="#3F51B5"/>
<g opacity="0.5">
<path opacity="0.5" d="M363.92 278.11H304.65C298.768 278.11 294 282.878 294 288.76V288.77C294 294.652 298.768 299.42 304.65 299.42H363.92C369.802 299.42 374.57 294.652 374.57 288.77V288.76C374.57 282.878 369.802 278.11 363.92 278.11Z" fill="#3F51B5"/>
<path opacity="0.5" d="M450.35 308.08H304.65C298.768 308.08 294 312.848 294 318.73V318.74C294 324.622 298.768 329.39 304.65 329.39H450.35C456.232 329.39 461 324.622 461 318.74V318.73C461 312.848 456.232 308.08 450.35 308.08Z" fill="#3F51B5"/>
<path opacity="0.5" d="M507.08 338.04H304.65C298.768 338.04 294 342.808 294 348.69V348.7C294 354.582 298.768 359.35 304.65 359.35H507.08C512.962 359.35 517.73 354.582 517.73 348.7V348.69C517.73 342.808 512.962 338.04 507.08 338.04Z" fill="#3F51B5"/>
</g>
<path d="M363.92 396.64H304.65C298.768 396.64 294 401.408 294 407.29V407.3C294 413.182 298.768 417.95 304.65 417.95H363.92C369.802 417.95 374.57 413.182 374.57 407.3V407.29C374.57 401.408 369.802 396.64 363.92 396.64Z" fill="#3F51B5"/>
<path d="M507.08 426.6H304.65C298.768 426.6 294 431.368 294 437.25V437.26C294 443.142 298.768 447.91 304.65 447.91H507.08C512.962 447.91 517.73 443.142 517.73 437.26V437.25C517.73 431.368 512.962 426.6 507.08 426.6Z" fill="#3F51B5"/>
<path d="M422.35 456.57H304.65C298.768 456.57 294 461.338 294 467.22V467.23C294 473.112 298.768 477.88 304.65 477.88H422.35C428.232 477.88 433 473.112 433 467.23V467.22C433 461.338 428.232 456.57 422.35 456.57Z" fill="#3F51B5"/>
<path d="M363.92 515.16H304.65C298.768 515.16 294 519.928 294 525.81V525.82C294 531.702 298.768 536.47 304.65 536.47H363.92C369.802 536.47 374.57 531.702 374.57 525.82V525.81C374.57 519.928 369.802 515.16 363.92 515.16Z" fill="#3F51B5"/>
<path d="M507.08 545.13H304.65C298.768 545.13 294 549.898 294 555.78V555.79C294 561.672 298.768 566.44 304.65 566.44H507.08C512.962 566.44 517.73 561.672 517.73 555.79V555.78C517.73 549.898 512.962 545.13 507.08 545.13Z" fill="#3F51B5"/>
<path d="M463.35 575.09H304.65C298.768 575.09 294 579.858 294 585.74V585.75C294 591.632 298.768 596.4 304.65 596.4H463.35C469.232 596.4 474 591.632 474 585.75V585.74C474 579.858 469.232 575.09 463.35 575.09Z" fill="#3F51B5"/>
<path opacity="0.7" d="M260 259.99H912" stroke="#3F3D56" stroke-miterlimit="10" stroke-linecap="round"/>
<path opacity="0.7" d="M260 380.49H912" stroke="#3F3D56" stroke-miterlimit="10" stroke-linecap="round"/>
<path opacity="0.7" d="M260 500.99H912" stroke="#3F3D56" stroke-miterlimit="10" stroke-linecap="round"/>
<path opacity="0.7" d="M260 624.49H912" stroke="#3F3D56" stroke-miterlimit="10" stroke-linecap="round"/>
<path opacity="0.1" d="M795 697.99C876.561 697.99 942.68 693.289 942.68 687.49C942.68 681.691 876.561 676.99 795 676.99C713.439 676.99 647.32 681.691 647.32 687.49C647.32 693.289 713.439 697.99 795 697.99Z" fill="#3F51B5"/>
<path opacity="0.1" d="M70.52 162.81C82.4659 162.81 92.15 153.126 92.15 141.18C92.15 129.234 82.4659 119.55 70.52 119.55C58.5741 119.55 48.89 129.234 48.89 141.18C48.89 153.126 58.5741 162.81 70.52 162.81Z" fill="#3F51B5"/>
<path opacity="0.1" d="M160.67 43.26C172.616 43.26 182.3 33.5759 182.3 21.63C182.3 9.68408 172.616 0 160.67 0C148.724 0 139.04 9.68408 139.04 21.63C139.04 33.5759 148.724 43.26 160.67 43.26Z" fill="#3F51B5"/>
<path opacity="0.1" d="M153.34 140.01C173.36 140.01 189.59 123.78 189.59 103.76C189.59 83.7397 173.36 67.51 153.34 67.51C133.32 67.51 117.09 83.7397 117.09 103.76C117.09 123.78 133.32 140.01 153.34 140.01Z" fill="#3F51B5"/>
<path d="M832.02 300.75H730.15C720.22 300.75 712.17 308.8 712.17 318.73C712.17 328.66 720.22 336.71 730.15 336.71H832.02C841.95 336.71 850 328.66 850 318.73C850 308.8 841.95 300.75 832.02 300.75Z" fill="#3F3D56"/>
<path opacity="0.1" d="M829.04 306.77H733.12C726.509 306.77 721.15 312.127 721.15 318.735C721.15 325.343 726.509 330.7 733.12 330.7H829.04C835.651 330.7 841.01 325.343 841.01 318.735C841.01 312.127 835.651 306.77 829.04 306.77Z" fill="black"/>
<path d="M725.17 661C726.74 660.77 728.31 660.45 729.85 660.09C729.649 661.631 729.203 663.13 728.53 664.53C727 667.43 724.01 669.18 721.26 670.96C720.881 670.606 720.391 670.393 719.874 670.359C719.356 670.324 718.843 670.469 718.42 670.77C715.11 672.77 712.47 675.59 708.96 677.31C707.73 677.91 706.45 678.39 705.25 679.06C702.339 680.834 699.929 683.323 698.25 686.29C697.25 687.84 696.44 689.88 697.42 691.42C697.796 691.941 698.28 692.374 698.84 692.69C700.265 693.684 701.973 694.193 703.71 694.14C704.71 694.05 705.71 693.67 706.8 693.5C708.17 693.26 709.57 693.38 710.95 693.26C712.952 693.002 714.914 692.494 716.79 691.75L723.66 689.35C725.6 688.723 727.489 687.947 729.31 687.03C730.4 686.44 731.43 685.75 732.54 685.21C733.789 684.656 735.08 684.201 736.4 683.85L740.3 682.71C740.86 682.495 741.463 682.417 742.06 682.48C742.6 682.58 743.06 682.92 743.61 683.06C744.45 683.209 745.314 683.126 746.11 682.82L750.63 681.54C751.584 681.324 752.494 680.945 753.32 680.42C755.39 678.95 755.76 676.03 755.75 673.48C755.74 669.617 755.304 665.767 754.45 662C753.871 662.235 753.364 662.618 752.98 663.11C752.519 662.459 752.021 661.835 751.49 661.24C749.408 658.818 747.87 655.977 746.98 652.91C748.612 651.697 749.975 650.158 750.98 648.39C748.59 639.28 746.14 630.03 741.28 621.99C739.69 619.37 737.87 616.91 736.28 614.33C731.55 606.83 730.58 597.33 725.17 590.33C724.656 589.62 724.379 588.766 724.379 587.89C724.379 587.014 724.656 586.16 725.17 585.45C725.79 584.63 726.79 583.86 726.6 582.84C726.46 582.11 725.7 581.44 725.99 580.76C726.13 580.43 726.47 580.25 726.73 580.01C727.65 579.15 727.53 577.7 727.62 576.44C727.82 573.26 729.71 570.44 731.53 567.88C731.899 567.268 732.389 566.737 732.97 566.32C733.46 566.02 734.04 565.88 734.53 565.58C736.25 564.49 736.13 561.96 736.95 560.08C738.03 557.6 740.75 556.35 742.53 554.34C744.8 551.78 745.38 548.22 747.77 545.99C748.015 545.755 748.279 545.541 748.56 545.35C747.523 549.144 747.048 553.069 747.15 557C746.92 570.53 750.28 584.53 748.71 598C747.47 608.66 753.98 619.29 763.21 624.62C766.824 626.547 770.603 628.15 774.5 629.41C780.28 631.48 786.04 633.61 791.71 635.99C795.71 637.67 799.657 639.473 803.55 641.4C808.355 643.747 813.029 646.355 817.55 649.21C823.11 652.78 828.68 656.4 832.63 661.73C835.047 661.607 837.37 660.753 839.29 659.28C840.81 660.48 842.65 661.39 844.08 662.72C846.055 664.778 847.377 667.373 847.88 670.18H847.28C847.35 671.51 847.41 672.84 847.48 674.18C847.533 674.521 847.48 674.87 847.33 675.18C847.185 675.378 847.001 675.545 846.79 675.67L843.71 677.76C841.47 679.27 839 681.18 838.88 683.89C838.818 684.679 839.057 685.461 839.55 686.08C840.304 686.781 841.266 687.216 842.29 687.32C847.65 688.45 853.14 689.55 858.57 688.82C861.15 688.47 863.82 687.62 865.5 685.62C867.04 683.8 867.5 681.33 867.92 678.98C868.59 674.98 869.15 670.89 869.59 666.83C869.725 664.071 870.285 661.349 871.25 658.76C871.325 658.535 871.477 658.343 871.68 658.22C871.91 658.12 872.18 658.22 872.42 658.12C872.66 658.02 872.82 657.65 872.9 657.35C873.89 653.401 874.371 649.341 874.33 645.27C874.377 644.213 874.217 643.156 873.86 642.16C873.437 641.326 872.834 640.597 872.093 640.026C871.353 639.455 870.494 639.057 869.58 638.86C867.758 638.49 865.908 638.269 864.05 638.2C862.499 638.051 860.963 637.77 859.46 637.36C858.851 637.13 858.197 637.044 857.55 637.11C857.228 637.154 856.934 637.312 856.72 637.557C856.507 637.802 856.39 638.115 856.39 638.44C856.425 638.671 856.507 638.892 856.63 639.09L855.07 638.78C853.81 638.55 852.07 638 850.18 637.54C850.18 637.22 850.2 636.887 850.24 636.54C850.244 636.182 850.147 635.831 849.959 635.526C849.771 635.222 849.501 634.977 849.18 634.82L822.76 620.7L817.82 618.06C807 612.27 795.82 606.92 784.97 601.13C784.25 601.35 783.65 600.52 783.44 599.78C783.23 599.04 783.08 598.16 782.39 597.83C782.05 597.67 781.6 597.68 781.39 597.39C781.211 597.13 781.143 596.81 781.2 596.5C781.55 591.23 785.32 586.37 784.57 581.15C784.25 578.92 783.1 576.72 783.57 574.53C783.92 573.02 785 571.79 785.57 570.35C786.87 567.13 785.57 563.26 786.99 560.11C787.936 558.04 788.58 555.844 788.9 553.59C789.57 549.099 790.918 544.736 792.9 540.65C793.858 538.589 795.111 536.679 796.62 534.98C797.41 534.12 798.3 533.35 799.06 532.46C801.36 529.71 802.21 526.05 802.86 522.46C804.04 516.05 804.86 509.4 803.38 503.04C802.88 500.88 802.12 498.73 802.15 496.51C802.15 493.85 803.22 490.8 801.93 488.67C803.259 487.603 804.146 486.082 804.42 484.4C804.439 483.795 804.557 483.197 804.77 482.63C805.209 482.013 805.78 481.501 806.44 481.13C807.472 480.343 808.261 479.281 808.717 478.066C809.174 476.851 809.279 475.532 809.02 474.26C810.39 474.88 811.83 473.49 812.48 472.12C813.13 470.75 813.62 469.12 815.01 468.5C815.95 468.1 817.01 468.34 818.01 468.08C819.6 467.67 820.57 466.08 821.69 464.91C823.97 462.45 827.2 461.18 830.19 459.67C839.05 455.16 846.27 448.03 853.34 441.01C857.027 437.586 860.376 433.816 863.34 429.75C864.13 428.58 864.85 427.37 865.53 426.13L865.71 426.04L865.77 426.26C865.88 426.7 866.01 427.14 866.14 427.57C866.46 428.57 866.82 429.64 867.14 430.66C868.22 433.66 869.39 436.86 871.59 439.13C872.265 439.822 873.032 440.418 873.87 440.9C875.688 441.877 877.685 442.475 879.74 442.66C880.52 442.76 881.31 442.82 882.1 442.86C882.89 442.9 883.68 442.93 884.46 442.95L900.64 443.38C895.08 435.32 894.64 424.84 895.01 415.03C895.94 389.83 900.85 364.4 896.29 339.6C895.74 336.6 895.01 333.6 893.18 331.19C890.78 328.04 886.84 326.52 883 325.63C879.16 324.74 875.17 324.31 871.58 322.7C868.58 321.33 865.82 319.13 862.58 318.41C860.193 318.01 857.753 318.051 855.38 318.53C852.46 318.963 849.557 319.477 846.67 320.07L845.97 320.22H846L845.52 320.33H845.39L844.96 320.43H844.8L844.4 320.54L844.22 320.59L843.85 320.71L843.64 320.78L843.3 320.89L843.08 320.98L842.76 321.1L842.52 321.2L842.23 321.33L841.99 321.45L841.72 321.58L841.48 321.72L841.23 321.86L840.99 322.02L840.76 322.17L840.52 322.34L840.32 322.5L840.09 322.7L839.9 322.87C839.822 322.942 839.748 323.019 839.68 323.1L839.51 323.27C839.431 323.359 839.358 323.452 839.29 323.55C839.29 323.6 839.2 323.65 839.16 323.71C839.12 323.77 838.98 323.97 838.89 324.12V324.18C838.664 324.556 838.48 324.955 838.34 325.37C838.27 325.58 838.2 325.79 838.15 326C838.047 326.428 837.973 326.862 837.93 327.3C837.93 327.52 837.93 327.75 837.88 327.97C837.88 328.41 837.88 328.86 837.88 329.3C837.92 330.051 838.004 330.799 838.13 331.54C834.583 333.636 831.626 336.597 829.534 340.146C827.442 343.695 826.284 347.717 826.168 351.835C826.053 355.953 826.983 360.033 828.872 363.694C830.761 367.355 833.547 370.478 836.97 372.77C837.018 373.165 837.045 373.562 837.05 373.96V374.22C836.994 375.635 836.847 377.044 836.61 378.44C832.657 377.672 828.636 377.314 824.61 377.37C822.21 377.37 819.79 377.59 817.37 377.78C814.776 374.651 812.359 371.379 810.13 367.98L804.79 360.15C802.956 357.592 801.286 354.92 799.79 352.15C798.48 349.61 797.46 346.91 796 344.45C793 339.38 788.1 335.07 787.49 329.2L786.08 329.49C785.31 328.23 784.34 326.9 783.98 326.17C782.049 322.004 780.561 317.647 779.54 313.17C779.05 310.85 778.68 308.43 777.41 306.43C776.544 305.181 775.496 304.068 774.3 303.13C772.371 301.314 770.11 299.888 767.64 298.93C766.538 298.529 765.365 298.358 764.194 298.427C763.023 298.496 761.878 298.803 760.83 299.33C760.504 299.179 760.17 299.045 759.83 298.93C758.592 298.459 757.258 298.293 755.942 298.446C754.627 298.599 753.367 299.067 752.27 299.81C750.17 301.42 749.27 304.18 748.95 306.81C748.397 310.449 749.021 314.17 750.73 317.43C752.73 321.01 756.31 323.43 759.27 326.27C761.33 328.265 763.134 330.509 764.64 332.95C765.104 338.352 764.967 343.789 764.23 349.16C763.85 351.46 763.23 353.72 763.05 356.04C762.32 364.42 766.68 372.8 765.12 381.04C764.862 382.279 764.997 383.567 765.504 384.726C766.011 385.885 766.866 386.858 767.95 387.51C770.19 388.72 772.81 388.88 775.27 389.51C780.1 390.75 784.27 393.84 789.15 394.99C791.4 395.53 793.74 395.63 795.98 396.23L796.33 396.34C794.604 398.293 793.373 400.632 792.74 403.16C791.74 407.36 792.68 411.85 791.68 416.05C790.86 419.51 788.8 422.53 786.77 425.46C782.863 431.113 778.95 436.78 775.03 442.46C772.41 446.444 769.52 450.243 766.38 453.83C760.99 459.72 751.69 464.39 748.95 471.47C748.89 471.3 748.81 471.13 748.75 470.96C744.87 473.81 743.42 479.12 740.33 482.81C738.82 484.6 736.96 486.05 735.33 487.71C733.311 489.853 731.462 492.15 729.8 494.58C725.2 500.96 720.57 507.37 717.28 514.52C715.56 518.24 714.23 522.11 712.86 525.96C707.48 541.13 698.7 555.52 695.05 571.21C694.16 575.04 691.83 578.5 691.48 582.42C691.09 586.6 693 590.62 694.98 594.31C697.98 599.95 701.32 605.43 703.98 611.23C705.55 614.61 706.91 618.1 708.66 621.4C710.57 625 712.91 628.34 714.91 631.89C719.78 641 722.58 651.07 725.17 661ZM791.33 374.45L790.85 374.21C789.057 373.434 787.415 372.348 786 371C781.69 366.4 779.84 359.47 778.49 353.28C778.33 352.54 778.19 351.81 778.06 351.07C783.29 358.5 788.23 366.18 791.33 374.47V374.45Z" fill="url(#paint0_linear)"/>
<path d="M771.68 314.4C771.19 312.09 770.83 309.69 769.56 307.71C768.69 306.467 767.638 305.361 766.44 304.43C764.5 302.626 762.233 301.211 759.76 300.26C758.521 299.795 757.19 299.631 755.875 299.782C754.56 299.934 753.301 300.396 752.2 301.13C750.09 302.73 749.2 305.47 748.87 308.13C748.317 311.747 748.941 315.445 750.65 318.68C752.7 322.24 756.24 324.62 759.21 327.46C761.367 329.54 763.243 331.893 764.79 334.46C765.495 335.791 766.347 337.039 767.33 338.18C767.827 338.739 768.447 339.176 769.141 339.455C769.835 339.734 770.584 339.849 771.33 339.79C772.577 339.46 773.709 338.792 774.6 337.86C775.82 336.79 779.1 334.86 779.2 333.19C779.28 331.82 776.72 328.72 776.09 327.43C774.166 323.254 772.688 318.886 771.68 314.4V314.4Z" fill="#AE7E7E"/>
<path opacity="0.1" d="M771.68 314.4C771.19 312.09 770.83 309.69 769.56 307.71C768.69 306.467 767.638 305.361 766.44 304.43C764.5 302.626 762.233 301.211 759.76 300.26C758.521 299.795 757.19 299.631 755.875 299.782C754.56 299.934 753.301 300.396 752.2 301.13C750.09 302.73 749.2 305.47 748.87 308.13C748.317 311.747 748.941 315.445 750.65 318.68C752.7 322.24 756.24 324.62 759.21 327.46C761.367 329.54 763.243 331.893 764.79 334.46C765.495 335.791 766.347 337.039 767.33 338.18C767.827 338.739 768.447 339.176 769.141 339.455C769.835 339.734 770.584 339.849 771.33 339.79C772.577 339.46 773.709 338.792 774.6 337.86C775.82 336.79 779.1 334.86 779.2 333.19C779.28 331.82 776.72 328.72 776.09 327.43C774.166 323.254 772.688 318.886 771.68 314.4V314.4Z" fill="black"/>
<path d="M840.85 380.23C835.575 378.816 830.13 378.143 824.67 378.23C815.56 378.36 806.18 380.57 797.5 377.77C795.267 377.01 793.095 376.084 791 375C789.205 374.231 787.56 373.151 786.14 371.81C781.82 367.24 779.96 360.35 778.62 354.21C777.436 348.032 776.751 341.768 776.57 335.48C774.32 336.53 771.94 337.56 769.47 337.35C767 337.14 764.47 335.24 764.47 332.76C764.84 338.58 765.11 344.47 764.14 350.21C763.76 352.49 763.14 354.74 762.97 357.04C762.23 365.37 766.6 373.69 765.04 381.9C764.778 383.132 764.911 384.415 765.419 385.567C765.927 386.719 766.784 387.682 767.87 388.32C770.11 389.53 772.74 389.68 775.2 390.32C780.03 391.55 784.2 394.62 789.1 395.77C791.35 396.3 793.7 396.4 795.94 397C799.13 397.85 802.04 399.68 805.3 400.25C807.74 400.69 810.3 400.39 812.73 400.6C814.88 400.78 816.98 401.34 819.14 401.4C824.42 401.53 829.4 398.55 832.9 394.59C836.4 390.63 838.63 385 840.85 380.23Z" fill="#803E40"/>
<path opacity="0.1" d="M840.85 380.23C835.575 378.816 830.13 378.143 824.67 378.23C815.56 378.36 806.18 380.57 797.5 377.77C795.267 377.01 793.095 376.084 791 375C789.205 374.231 787.56 373.151 786.14 371.81C781.82 367.24 779.96 360.35 778.62 354.21C777.436 348.032 776.751 341.768 776.57 335.48C774.32 336.53 771.94 337.56 769.47 337.35C767 337.14 764.47 335.24 764.47 332.76C764.84 338.58 765.11 344.47 764.14 350.21C763.76 352.49 763.14 354.74 762.97 357.04C762.23 365.37 766.6 373.69 765.04 381.9C764.778 383.132 764.911 384.415 765.419 385.567C765.927 386.719 766.784 387.682 767.87 388.32C770.11 389.53 772.74 389.68 775.2 390.32C780.03 391.55 784.2 394.62 789.1 395.77C791.35 396.3 793.7 396.4 795.94 397C799.13 397.85 802.04 399.68 805.3 400.25C807.74 400.69 810.3 400.39 812.73 400.6C814.88 400.78 816.98 401.34 819.14 401.4C824.42 401.53 829.4 398.55 832.9 394.59C836.4 390.63 838.63 385 840.85 380.23Z" fill="black"/>
<path d="M855.31 637.67C856.942 637.872 858.524 638.367 859.98 639.13C861.88 640.48 863.301 642.399 864.04 644.61C866.22 649.99 866.67 655.91 866.77 661.72C866.85 666.41 866.69 671.21 865.01 675.59C864.551 676.972 863.758 678.219 862.7 679.22C861.762 679.955 860.678 680.48 859.52 680.76C857.01 681.45 854.11 681.44 852.06 679.84C849.78 678.06 849.21 674.91 848.73 672.06C848.08 668.22 847.16 664.13 844.3 661.48C842.18 659.48 839.14 658.48 837.6 656.06C835.76 653.15 836.73 649.35 837.9 646.11C838.9 643.3 840.41 637.61 843.35 636.17C846.29 634.73 852.26 637.12 855.31 637.67Z" fill="#AE7E7E"/>
<path d="M747 651.47C747.882 654.609 749.446 657.515 751.58 659.98C752.88 661.48 754.51 663.3 753.83 665.16C753.544 665.792 753.124 666.355 752.6 666.81C742.94 676.25 729.43 680.81 716.03 682.53C715.817 682.585 715.593 682.585 715.38 682.53C714.99 682.36 714.89 681.86 714.85 681.43C714.63 680.035 714.63 678.615 714.85 677.22C715.5 673.95 718.37 671.64 721.18 669.83C723.99 668.02 727.06 666.28 728.62 663.33C730.57 659.67 729.75 654.9 732.07 651.47C733.95 648.68 737.45 647.47 740.78 646.97C741.93 646.79 744.38 645.53 745.36 646.11C746.34 646.69 746.66 650.32 747 651.47Z" fill="#AE7E7E"/>
<path d="M856.63 637.33C856.63 637.007 856.747 636.694 856.961 636.451C857.174 636.208 857.469 636.051 857.79 636.01C858.437 635.946 859.089 636.028 859.7 636.25C861.202 636.668 862.738 636.952 864.29 637.1C866.151 637.165 868.004 637.382 869.83 637.75C870.743 637.941 871.602 638.334 872.345 638.9C873.087 639.466 873.693 640.19 874.12 641.02C874.477 642.013 874.636 643.066 874.59 644.12C874.631 648.165 874.15 652.198 873.16 656.12C873.08 656.42 872.96 656.77 872.67 656.88C872.38 656.99 872.17 656.88 871.94 656.99C871.836 657.047 871.745 657.124 871.671 657.217C871.597 657.31 871.543 657.416 871.51 657.53C870.542 660.094 869.978 662.793 869.84 665.53C869.4 669.53 868.84 673.59 868.17 677.59C867.78 679.93 867.29 682.39 865.75 684.19C864.06 686.19 861.39 687.02 858.81 687.37C853.37 688.09 847.88 687 842.51 685.88C841.485 685.778 840.52 685.346 839.76 684.65C839.267 684.035 839.027 683.255 839.09 682.47C839.21 679.78 841.69 677.88 843.92 676.38L847.01 674.31C847.225 674.19 847.41 674.023 847.55 673.82C847.702 673.51 847.755 673.161 847.7 672.82L847.5 668.82C849.546 668.857 851.545 669.447 853.282 670.528C855.02 671.609 856.433 673.141 857.37 674.96C857.79 675.81 858.2 676.8 859.08 677.13C859.652 677.261 860.253 677.164 860.755 676.86C861.257 676.556 861.621 676.068 861.77 675.5C862.035 674.354 862.004 673.16 861.68 672.03C859.87 662.36 860.3 652.42 859.2 642.65C859.13 641.55 858.786 640.484 858.2 639.55C857.73 638.88 856.74 638.23 856.63 637.33Z" fill="#803E40"/>
<path d="M734.8 329.39H756.78C762.662 329.39 767.43 324.622 767.43 318.74V318.73C767.43 312.848 762.662 308.08 756.78 308.08H734.8C728.918 308.08 724.15 312.848 724.15 318.73V318.74C724.15 324.622 728.918 329.39 734.8 329.39Z" fill="#3F51B5"/>
<path d="M746.12 325.39C749.798 325.39 752.78 322.408 752.78 318.73C752.78 315.052 749.798 312.07 746.12 312.07C742.442 312.07 739.46 315.052 739.46 318.73C739.46 322.408 742.442 325.39 746.12 325.39Z" fill="#262626"/>
<path d="M722.11 674.82C721.66 675.57 720.95 676.15 720.53 676.92C720.292 677.286 720.195 677.727 720.258 678.159C720.32 678.591 720.538 678.986 720.87 679.27C721.32 679.467 721.821 679.516 722.3 679.41C731.959 678.204 741.025 674.096 748.3 667.63C749.51 666.61 750.583 665.437 751.49 664.14C752.34 662.85 753.06 661.27 754.49 660.73C755.36 664.485 755.81 668.325 755.83 672.18C755.83 674.72 755.47 677.61 753.4 679.08C752.569 679.597 751.656 679.969 750.7 680.18L746.18 681.46C745.38 681.762 744.513 681.845 743.67 681.7C743.14 681.56 742.67 681.22 742.12 681.12C741.523 681.057 740.92 681.135 740.36 681.35L736.45 682.49C735.128 682.833 733.837 683.285 732.59 683.84C731.47 684.37 730.44 685.05 729.35 685.64C727.527 686.554 725.634 687.323 723.69 687.94L716.82 690.33C714.938 691.065 712.974 691.569 710.97 691.83C709.59 691.95 708.18 691.83 706.81 692.06C705.81 692.24 704.81 692.62 703.71 692.7C701.974 692.754 700.267 692.249 698.84 691.26C698.283 690.945 697.799 690.516 697.42 690C696.42 688.47 697.29 686.45 698.25 684.9C699.941 681.955 702.349 679.486 705.25 677.72C706.45 677.06 707.74 676.58 708.97 675.98C712.48 674.28 715.13 671.44 718.44 669.5C721.57 667.67 723.58 672.4 722.11 674.82Z" fill="#803E40"/>
<path d="M818.69 397.94C822.324 400.434 826.486 402.052 830.85 402.67C833.132 402.953 835.431 403.077 837.73 403.04C847.323 403.03 856.898 402.231 866.36 400.65C862.6 396.5 858.79 392.06 857.36 386.65C856.654 383.782 856.505 380.805 856.92 377.88C857.497 374.143 858.393 370.463 859.6 366.88C855.565 367.092 851.519 366.988 847.5 366.57C845.21 366.33 839.59 364.25 837.6 365.83C835.61 367.41 837.14 372.5 837.17 374.89C837.175 374.977 837.175 375.063 837.17 375.15C837.073 378.791 836.289 382.38 834.86 385.73C832 392.19 825.8 397.51 818.69 397.94Z" fill="#AE7E7E"/>
<path opacity="0.1" d="M837.18 374.84C840.065 376.725 843.321 377.969 846.729 378.487C850.136 379.004 853.615 378.784 856.93 377.84C857.507 374.103 858.403 370.423 859.61 366.84C855.575 367.052 851.529 366.948 847.51 366.53C845.22 366.29 839.6 364.21 837.61 365.79C835.62 367.37 837.15 372.45 837.18 374.84Z" fill="black"/>
<path d="M850.38 377.65C863.696 377.65 874.49 366.856 874.49 353.54C874.49 340.224 863.696 329.43 850.38 329.43C837.064 329.43 826.27 340.224 826.27 353.54C826.27 366.856 837.064 377.65 850.38 377.65Z" fill="#AE7E7E"/>
<path d="M748.09 475.53C748.082 477.475 748.579 479.389 749.532 481.084C750.486 482.779 751.864 484.197 753.53 485.2C755.386 486.175 757.373 486.875 759.43 487.28C770.43 489.94 781.75 492.08 793.08 491.43C795.536 491.409 797.963 490.899 800.22 489.93C801.343 489.432 802.33 488.672 803.097 487.713C803.865 486.754 804.391 485.625 804.63 484.42C804.641 483.821 804.756 483.229 804.97 482.67C805.41 482.056 805.98 481.547 806.64 481.18C807.671 480.403 808.462 479.351 808.92 478.144C809.378 476.937 809.486 475.625 809.23 474.36C810.6 474.98 812.04 473.59 812.69 472.23C813.34 470.87 813.84 469.23 815.22 468.64C816.16 468.24 817.22 468.48 818.22 468.22C819.81 467.81 820.78 466.22 821.9 465.07C824.18 462.63 827.43 461.37 830.41 459.86C839.29 455.39 846.52 448.3 853.61 441.33C857.296 437.934 860.645 434.19 863.61 430.15C864.404 428.988 865.139 427.787 865.81 426.55C867.947 422.444 869.801 418.198 871.36 413.84C872.26 411.5 873.17 409.04 872.8 406.56C872.8 406.34 872.72 406.12 872.67 405.89C872.207 404.299 871.466 402.802 870.48 401.47C868.03 397.87 864.82 394.47 860.6 393.35C856.38 392.23 852.18 393.58 847.89 394.49C846.47 394.808 845.03 395.029 843.58 395.15C839.04 395.47 834.58 394.25 830.16 393.04L825.38 391.72C822.99 391.06 821.79 388.17 819.38 387.66C818.296 387.497 817.191 387.555 816.13 387.83C811.22 388.76 806.26 389.97 801.93 392.47C800.962 393.024 800.039 393.652 799.17 394.35C796.028 396.697 793.766 400.032 792.75 403.82C791.75 407.99 792.69 412.45 791.69 416.62C790.87 420.06 788.8 423.06 786.78 425.96L775 442.83C772.374 446.783 769.48 450.552 766.34 454.11C760 461 748.26 466.18 748.09 475.53Z" fill="#803E40"/>
<path d="M779.53 314.4C779.04 312.09 778.68 309.69 777.41 307.71C776.54 306.467 775.488 305.361 774.29 304.43C772.35 302.626 770.082 301.211 767.61 300.26C766.371 299.795 765.039 299.631 763.725 299.782C762.41 299.934 761.151 300.396 760.05 301.13C757.94 302.73 757.05 305.47 756.72 308.13C756.167 311.747 756.791 315.445 758.5 318.68C760.5 322.24 764.09 324.62 767.06 327.46C769.217 329.54 771.093 331.893 772.64 334.46C773.345 335.791 774.197 337.039 775.18 338.18C775.677 338.739 776.297 339.176 776.991 339.455C777.685 339.734 778.434 339.849 779.18 339.79C780.427 339.46 781.559 338.792 782.45 337.86C783.67 336.79 786.95 334.86 787.05 333.19C787.13 331.82 784.57 328.72 783.94 327.43C782.016 323.254 780.538 318.886 779.53 314.4Z" fill="#AE7E7E"/>
<path d="M694.81 593.64C697.81 599.24 701.15 604.64 703.86 610.44C705.43 613.81 706.79 617.27 708.54 620.55C710.45 624.12 712.8 627.44 714.8 630.96C719.8 639.86 722.63 649.9 725.22 659.79C732.458 658.713 739.423 656.263 745.74 652.57C746.165 652.33 746.575 652.066 746.97 651.78C748.661 650.571 750.073 649.012 751.11 647.21C748.72 638.21 746.27 628.98 741.4 620.99C739.81 618.39 737.99 615.99 736.4 613.38C731.67 605.93 730.69 596.54 725.28 589.57C724.764 588.869 724.485 588.021 724.485 587.15C724.485 586.279 724.764 585.431 725.28 584.73C725.9 583.92 726.9 583.15 726.71 582.14C726.57 581.41 725.81 580.75 726.1 580.07C726.24 579.74 726.58 579.56 726.84 579.32C727.76 578.48 727.64 577.03 727.73 575.79C727.93 572.63 729.82 569.86 731.65 567.28C732.022 566.672 732.511 566.145 733.09 565.73C733.58 565.43 734.16 565.29 734.65 564.99C736.37 563.92 736.25 561.4 737.08 559.53C738.16 557.07 740.88 555.82 742.67 553.83C744.94 551.29 745.51 547.76 747.91 545.54C748.158 545.308 748.422 545.094 748.7 544.9C747.659 548.679 747.184 552.592 747.29 556.51C747.06 569.95 750.42 583.85 748.85 597.2C747.61 607.78 754.13 618.34 763.37 623.64C766.994 625.553 770.778 627.146 774.68 628.4C780.46 630.45 786.24 632.56 791.91 634.93C795.91 636.59 799.91 638.39 803.77 640.3C808.575 642.629 813.249 645.219 817.77 648.06C823.34 651.6 828.92 655.2 832.87 660.49C836.7 660.39 840.21 658.09 842.63 655.12C845.05 652.15 846.56 648.56 847.97 645.01C849.2 641.94 850.42 638.79 850.51 635.48C850.511 635.124 850.412 634.776 850.225 634.473C850.038 634.171 849.769 633.927 849.45 633.77L822.99 619.77L817.99 617.15C807.16 611.4 795.99 606.08 785.1 600.34C784.37 600.55 783.77 599.72 783.56 599C783.35 598.28 783.2 597.38 782.51 597.06C782.16 596.9 781.72 596.9 781.51 596.62C781.338 596.361 781.274 596.046 781.33 595.74C781.68 590.5 785.46 585.68 784.7 580.49C784.38 578.27 783.23 576.09 783.7 573.92C784.05 572.41 785.13 571.19 785.7 569.76C786.99 566.56 785.7 562.76 787.12 559.59C788.068 557.534 788.711 555.351 789.03 553.11C789.712 548.647 791.078 544.316 793.08 540.27C794.038 538.218 795.291 536.318 796.8 534.63C797.6 533.78 798.49 533.01 799.24 532.13C801.55 529.4 802.39 525.76 803.05 522.25C804.23 515.88 805.05 509.25 803.57 502.96C803.07 500.81 802.31 498.68 802.34 496.47C802.34 493.56 803.65 490.15 801.63 488.04C800.778 487.283 799.745 486.759 798.63 486.52C793.926 485.252 789.127 484.365 784.28 483.87L762.22 481C759.672 480.832 757.178 480.184 754.87 479.09C751.87 477.44 749.87 474.37 748.67 471.17C744.79 474 743.33 479.27 740.24 482.93C738.73 484.72 736.87 486.16 735.24 487.8C733.214 489.925 731.362 492.209 729.7 494.63C725.09 500.96 720.45 507.34 717.15 514.43C715.44 518.12 714.15 521.97 712.73 525.79C707.34 540.86 698.55 555.16 694.9 570.73C694 574.54 691.67 577.97 691.32 581.87C690.91 586 692.82 590 694.81 593.64Z" fill="#141315"/>
<path opacity="0.1" d="M810.53 468.54C811.066 469.543 811.345 470.663 811.34 471.8C810.85 469.36 807.49 468.01 807.28 465.6C807.18 464.49 807.38 464.54 808.07 465.13C809.12 466 809.57 467.58 810.53 468.54Z" fill="black"/>
<path opacity="0.1" d="M800.32 475.94C801.024 476.542 801.553 477.323 801.85 478.2C802.41 479.434 802.516 480.826 802.15 482.13C801.66 481.9 801.49 481.3 801.34 480.77C801.114 479.952 800.777 479.168 800.34 478.44C799.94 477.81 798.11 476.31 798.13 475.62C798.1 474.58 799.83 475.57 800.32 475.94Z" fill="black"/>
<path opacity="0.1" d="M799.14 394.35C800.69 395.678 802.396 396.813 804.22 397.73C809 400.15 814.29 401.42 819.1 403.73C821.472 404.935 823.775 406.271 826 407.73C830.77 410.73 835.53 413.73 840.29 416.78C841.436 417.441 842.495 418.244 843.44 419.17C845.16 421.01 845.15 424.17 846.72 426.17C847.587 427.158 848.652 427.954 849.846 428.505C851.039 429.056 852.335 429.351 853.65 429.37C856.283 429.392 858.899 428.952 861.38 428.07C862.885 427.625 864.361 427.087 865.8 426.46C867.305 425.825 868.728 425.013 870.04 424.04C871.351 423.118 872.468 421.947 873.326 420.593C874.184 419.239 874.766 417.729 875.04 416.15C875.212 413.967 874.923 411.773 874.19 409.71C873.793 408.367 873.285 407.059 872.67 405.8C872.318 405.086 871.91 404.4 871.45 403.75C868.17 399.1 862.39 396.91 856.8 395.82C853.85 395.25 850.85 394.9 847.89 394.4C846.47 394.718 845.03 394.939 843.58 395.06C839.04 395.38 834.58 394.16 830.16 392.95L825.38 391.63C822.99 390.97 821.79 388.08 819.38 387.57C818.296 387.407 817.191 387.465 816.13 387.74C811.22 388.67 806.26 389.88 801.93 392.38C800.949 392.961 800.016 393.62 799.14 394.35V394.35Z" fill="black"/>
<path d="M787.49 330.36C788.1 336.19 793.02 340.47 796.02 345.5C797.48 347.95 798.5 350.63 799.81 353.16C801.307 355.929 802.977 358.601 804.81 361.16L810.16 368.93C813.31 373.5 816.49 378.11 820.51 381.93C827.51 383.12 833.41 388.33 840.06 390.86C845.39 392.86 851.19 393.16 856.78 394.25C862.37 395.34 868.15 397.52 871.43 402.18C872.656 404.022 873.581 406.047 874.17 408.18C874.902 410.24 875.192 412.431 875.02 414.61C874.747 416.191 874.166 417.703 873.307 419.058C872.449 420.414 871.332 421.587 870.02 422.51C867.389 424.333 864.463 425.686 861.37 426.51C858.888 427.388 856.273 427.827 853.64 427.81C852.324 427.79 851.027 427.495 849.832 426.944C848.637 426.393 847.57 425.598 846.7 424.61C845.14 422.61 845.15 419.42 843.43 417.61C842.485 416.684 841.426 415.881 840.28 415.22L825.99 406.22C823.765 404.761 821.462 403.425 819.09 402.22C814.28 399.87 808.99 398.6 804.21 396.22C799.43 393.84 794.98 389.81 794.04 384.54C791.13 368.35 779.92 354.7 770.34 341.33C770.65 341.27 770.56 340.55 770.67 340.25C772.057 337.112 774.548 334.593 777.67 333.17C780.75 331.5 784.17 331.07 787.49 330.36Z" fill="#803E40"/>
<path d="M838 330.48C837.821 328.725 838.169 326.956 839 325.4C840.59 322.76 843.91 321.83 846.93 321.21C849.95 320.59 852.73 320.11 855.65 319.69C858.026 319.212 860.468 319.168 862.86 319.56C866.12 320.28 868.86 322.47 871.86 323.82C875.46 325.43 879.46 325.82 883.3 326.74C887.14 327.66 891.09 329.13 893.5 332.26C895.33 334.63 896.06 337.66 896.61 340.61C901.18 365.24 896.26 390.5 895.33 415.53C894.96 425.27 895.4 435.68 900.97 443.69L884.76 443.26C880.61 443.15 876.15 442.93 872.89 440.37C870.01 438.12 868.65 434.49 867.43 431.06C866.325 428.396 865.624 425.581 865.35 422.71C865.1 416.83 868.44 411.06 867.35 405.27C866.54 400.95 863.35 397.45 860.03 394.62C856.71 391.79 852.93 389.32 850.2 385.87C845.35 379.72 844.42 371.33 845.02 363.52C845.38 358.88 846.22 354.23 845.81 349.59C845.605 346.04 844.325 342.636 842.14 339.83C839.59 336.75 838.24 334.83 838 330.48Z" fill="#141315"/>
<path opacity="0.1" d="M839 325.4C840.56 322.8 843.8 321.86 846.77 321.25C845.194 321.804 843.842 322.857 842.92 324.25C842.094 325.812 841.747 327.582 841.92 329.34C842.14 333.69 843.49 335.61 846.07 338.69C848.264 341.492 849.548 344.897 849.75 348.45C850.15 353.09 849.32 357.73 848.96 362.38C848.35 370.18 849.28 378.58 854.14 384.73C856.86 388.18 860.61 390.64 863.97 393.48C867.33 396.32 870.48 399.81 871.29 404.13C872.37 409.91 869.03 415.69 869.29 421.57C869.555 424.439 870.253 427.251 871.36 429.91C872.59 433.35 873.95 436.98 876.82 439.23C880.08 441.79 884.55 442.01 888.7 442.12L900.18 442.42C900.43 442.84 900.7 443.26 900.98 443.67L884.77 443.24C880.62 443.13 876.16 442.91 872.9 440.35C870.02 438.1 868.66 434.47 867.44 431.04C866.335 428.376 865.634 425.561 865.36 422.69C865.11 416.81 868.45 411.04 867.36 405.25C866.55 400.93 863.36 397.43 860.04 394.6C856.72 391.77 852.94 389.3 850.21 385.85C845.36 379.7 844.43 371.31 845.03 363.5C845.39 358.86 846.23 354.21 845.82 349.57C845.615 346.02 844.335 342.616 842.15 339.81C839.57 336.73 838.22 334.81 837.99 330.46C837.818 328.711 838.169 326.949 839 325.4V325.4Z" fill="black"/>
<path opacity="0.1" d="M717.22 579.23L747 651.78C748.691 650.571 750.103 649.012 751.14 647.21C748.75 638.21 746.3 628.98 741.43 620.99C739.84 618.39 738.02 615.99 736.43 613.38C731.7 605.93 730.72 596.54 725.31 589.57C724.793 588.869 724.515 588.021 724.515 587.15C724.515 586.279 724.793 585.431 725.31 584.73C725.93 583.92 726.93 583.15 726.74 582.14C726.6 581.41 725.84 580.75 726.13 580.07C726.27 579.74 726.61 579.56 726.87 579.32C727.79 578.48 727.67 577.03 727.76 575.79C727.96 572.63 729.85 569.86 731.68 567.28C732.052 566.672 732.541 566.145 733.12 565.73C733.61 565.43 734.19 565.29 734.68 564.99C736.4 563.92 736.28 561.4 737.11 559.53C738.19 557.07 740.91 555.82 742.7 553.83C744.97 551.29 745.54 547.76 747.94 545.54L748.15 545.02L745.9 531.02L717.22 579.23Z" fill="black"/>
<path d="M977.05 665.88C995.8 665.88 1011 662.956 1011 659.35C1011 655.744 995.8 652.82 977.05 652.82C958.3 652.82 943.1 655.744 943.1 659.35C943.1 662.956 958.3 665.88 977.05 665.88Z" fill="#3F51B5"/>
<path d="M977.62 661.74C979.802 661.74 981.57 659.425 981.57 656.57C981.57 653.715 979.802 651.4 977.62 651.4C975.438 651.4 973.67 653.715 973.67 656.57C973.67 659.425 975.438 661.74 977.62 661.74Z" fill="#3F3D56"/>
<path d="M977.62 655.42C979.802 655.42 981.57 653.105 981.57 650.25C981.57 647.395 979.802 645.08 977.62 645.08C975.438 645.08 973.67 647.395 973.67 650.25C973.67 653.105 975.438 655.42 977.62 655.42Z" fill="#3F3D56"/>
<path d="M977.62 649.09C979.802 649.09 981.57 646.775 981.57 643.92C981.57 641.065 979.802 638.75 977.62 638.75C975.438 638.75 973.67 641.065 973.67 643.92C973.67 646.775 975.438 649.09 977.62 649.09Z" fill="#3F3D56"/>
<path d="M977.62 642.77C979.802 642.77 981.57 640.455 981.57 637.6C981.57 634.745 979.802 632.43 977.62 632.43C975.438 632.43 973.67 634.745 973.67 637.6C973.67 640.455 975.438 642.77 977.62 642.77Z" fill="#3F3D56"/>
<path d="M977.62 636.44C979.802 636.44 981.57 634.125 981.57 631.27C981.57 628.415 979.802 626.1 977.62 626.1C975.438 626.1 973.67 628.415 973.67 631.27C973.67 634.125 975.438 636.44 977.62 636.44Z" fill="#3F3D56"/>
<path d="M977.62 630.12C979.802 630.12 981.57 627.805 981.57 624.95C981.57 622.095 979.802 619.78 977.62 619.78C975.438 619.78 973.67 622.095 973.67 624.95C973.67 627.805 975.438 630.12 977.62 630.12Z" fill="#3F3D56"/>
<path d="M977.62 623.8C979.802 623.8 981.57 621.485 981.57 618.63C981.57 615.775 979.802 613.46 977.62 613.46C975.438 613.46 973.67 615.775 973.67 618.63C973.67 621.485 975.438 623.8 977.62 623.8Z" fill="#3F3D56"/>
<path d="M962.82 575.35C962.28 574.662 961.789 573.937 961.35 573.18L971.73 571.47L960.5 571.56C959.425 569.215 958.839 566.676 958.777 564.097C958.715 561.518 959.179 558.954 960.14 556.56L975.21 564.37L961.31 554.16C962.607 551.898 964.356 549.929 966.449 548.374C968.542 546.82 970.933 545.715 973.472 545.127C976.012 544.539 978.646 544.482 981.209 544.96C983.772 545.437 986.208 546.438 988.366 547.9C990.525 549.363 992.358 551.255 993.751 553.458C995.144 555.662 996.067 558.129 996.462 560.706C996.858 563.283 996.717 565.913 996.049 568.433C995.381 570.953 994.2 573.308 992.58 575.35C993.426 576.416 994.15 577.573 994.74 578.8L981.26 585.8L995.64 580.98C996.3 582.936 996.637 584.986 996.64 587.05C996.645 591.299 995.215 595.426 992.58 598.76C994.776 601.552 996.142 604.906 996.521 608.438C996.901 611.97 996.279 615.538 994.727 618.733C993.175 621.928 990.755 624.622 987.744 626.507C984.733 628.392 981.252 629.392 977.7 629.392C974.148 629.392 970.667 628.392 967.656 626.507C964.645 624.622 962.225 621.928 960.673 618.733C959.121 615.538 958.499 611.97 958.878 608.438C959.258 604.906 960.624 601.552 962.82 598.76C960.196 595.422 958.77 591.3 958.77 587.055C958.77 582.81 960.196 578.688 962.82 575.35V575.35Z" fill="#3F51B5"/>
<path opacity="0.1" d="M996.64 587.05C996.645 591.299 995.215 595.426 992.58 598.76C994.776 601.552 996.142 604.906 996.521 608.438C996.901 611.97 996.279 615.538 994.727 618.733C993.175 621.928 990.755 624.622 987.744 626.507C984.733 628.392 981.252 629.392 977.7 629.392C974.148 629.392 970.667 628.392 967.656 626.507C964.645 624.622 962.225 621.928 960.673 618.733C959.121 615.538 958.499 611.97 958.878 608.438C959.258 604.906 960.624 601.552 962.82 598.76C960.28 595.54 996.64 584.93 996.64 587.05Z" fill="black"/>
<path d="M1043.17 591.22C1055.78 591.22 1066 589.255 1066 586.83C1066 584.405 1055.78 582.44 1043.17 582.44C1030.56 582.44 1020.34 584.405 1020.34 586.83C1020.34 589.255 1030.56 591.22 1043.17 591.22Z" fill="#3F51B5"/>
<path d="M1043.56 588.45C1045.03 588.45 1046.22 586.892 1046.22 584.97C1046.22 583.048 1045.03 581.49 1043.56 581.49C1042.09 581.49 1040.9 583.048 1040.9 584.97C1040.9 586.892 1042.09 588.45 1043.56 588.45Z" fill="#3F3D56"/>
<path d="M1043.56 584.2C1045.03 584.2 1046.22 582.642 1046.22 580.72C1046.22 578.798 1045.03 577.24 1043.56 577.24C1042.09 577.24 1040.9 578.798 1040.9 580.72C1040.9 582.642 1042.09 584.2 1043.56 584.2Z" fill="#3F3D56"/>
<path d="M1043.56 579.94C1045.03 579.94 1046.22 578.382 1046.22 576.46C1046.22 574.538 1045.03 572.98 1043.56 572.98C1042.09 572.98 1040.9 574.538 1040.9 576.46C1040.9 578.382 1042.09 579.94 1043.56 579.94Z" fill="#3F3D56"/>
<path d="M1043.56 575.69C1045.03 575.69 1046.22 574.132 1046.22 572.21C1046.22 570.288 1045.03 568.73 1043.56 568.73C1042.09 568.73 1040.9 570.288 1040.9 572.21C1040.9 574.132 1042.09 575.69 1043.56 575.69Z" fill="#3F3D56"/>
<path d="M1043.56 571.44C1045.03 571.44 1046.22 569.882 1046.22 567.96C1046.22 566.038 1045.03 564.48 1043.56 564.48C1042.09 564.48 1040.9 566.038 1040.9 567.96C1040.9 569.882 1042.09 571.44 1043.56 571.44Z" fill="#3F3D56"/>
<path d="M1043.56 567.19C1045.03 567.19 1046.22 565.632 1046.22 563.71C1046.22 561.788 1045.03 560.23 1043.56 560.23C1042.09 560.23 1040.9 561.788 1040.9 563.71C1040.9 565.632 1042.09 567.19 1043.56 567.19Z" fill="#3F3D56"/>
<path d="M1043.56 562.93C1045.03 562.93 1046.22 561.372 1046.22 559.45C1046.22 557.528 1045.03 555.97 1043.56 555.97C1042.09 555.97 1040.9 557.528 1040.9 559.45C1040.9 561.372 1042.09 562.93 1043.56 562.93Z" fill="#3F3D56"/>
<path d="M1033.61 530.36C1033.24 529.901 1032.9 529.413 1032.61 528.9L1039.61 527.75L1032.06 527.81C1031.29 526.143 1030.89 524.327 1030.89 522.49C1030.89 520.856 1031.2 519.237 1031.81 517.72L1041.95 522.98L1032.6 516.11C1033.47 514.581 1034.64 513.249 1036.05 512.197C1037.46 511.144 1039.07 510.395 1040.78 509.995C1042.49 509.596 1044.27 509.555 1045.99 509.876C1047.72 510.197 1049.37 510.872 1050.82 511.858C1052.27 512.845 1053.51 514.123 1054.44 515.61C1055.38 517.097 1056 518.762 1056.26 520.501C1056.52 522.239 1056.42 524.012 1055.96 525.709C1055.5 527.406 1054.7 528.989 1053.6 530.36C1054.17 531.078 1054.65 531.856 1055.05 532.68L1045.99 537.39L1055.65 534.14C1056.33 536.153 1056.5 538.304 1056.15 540.4C1055.79 542.496 1054.91 544.468 1053.6 546.14C1055.08 548.018 1056.01 550.276 1056.27 552.654C1056.52 555.033 1056.11 557.437 1055.06 559.59C1054.02 561.743 1052.39 563.559 1050.36 564.829C1048.34 566.1 1045.99 566.773 1043.6 566.773C1041.21 566.773 1038.86 566.1 1036.84 564.829C1034.81 563.559 1033.18 561.743 1032.14 559.59C1031.09 557.437 1030.68 555.033 1030.93 552.654C1031.19 550.276 1032.12 548.018 1033.6 546.14C1031.83 543.898 1030.87 541.125 1030.87 538.27C1030.87 535.415 1031.83 532.642 1033.6 530.4L1033.61 530.36Z" fill="#3F51B5"/>
<path opacity="0.1" d="M1056.34 538.23C1056.34 541.084 1055.38 543.856 1053.62 546.1C1055.1 547.978 1056.03 550.236 1056.29 552.614C1056.54 554.993 1056.13 557.397 1055.08 559.55C1054.04 561.703 1052.41 563.519 1050.38 564.789C1048.36 566.06 1046.01 566.734 1043.62 566.734C1041.23 566.734 1038.88 566.06 1036.86 564.789C1034.83 563.519 1033.2 561.703 1032.16 559.55C1031.11 557.397 1030.7 554.993 1030.95 552.614C1031.21 550.236 1032.14 547.978 1033.62 546.1C1031.9 543.93 1056.34 536.8 1056.34 538.23Z" fill="black"/>
</g>
<defs>
<linearGradient id="paint0_linear" x1="795.97" y1="694.18" x2="795.97" y2="298.52" gradientUnits="userSpaceOnUse">
<stop stop-color="#808080" stop-opacity="0.25"/>
<stop offset="0.54" stop-color="#808080" stop-opacity="0.12"/>
<stop offset="1" stop-color="#808080" stop-opacity="0.1"/>
</linearGradient>
<clipPath id="clip0">
<rect width="1144" height="697.99" fill="white"/>
</clipPath>
</defs>
</svg>
